# xmcd
#
# Track frame offsets:
#	150
#	13250
#	23155
#	37457
#	47265
#	60187
#	73050
#	83400
#	95730
#	108155
#	119220
#	131785
#	143285
#	153732
#	164000
#	180997
#	193345
#	206227
#	221380
#
# Disc length: 3173 seconds
#
# Revision: 0
# Processed by: cddbd v1.4PL0 Copyright (c) Steve Scherf et al.
# Submitted via: dBpowerAMP V4.0
#
DISCID=150c6313
DTITLE=Ike and Tina Turner - Portrait In Blues - Disc 2 - So Fine
DYEAR=1900
DGENRE=Blues
TTITLE0=Betcha Can't Kiss Me (Just On Time)
TTITLE1=It Ain't Nobody's Business (What Me And My Man Do)
TTITLE2=It Sho Ain't Me
TTITLE3=To Hot To Hold
TTITLE4=(Am I) A Fool In Love
TTITLE5=I Better Get Ta Steppin'
TTITLE6=Shake A Tail Feather
TTITLE7=So Fine
TTITLE8=We Need An Understanding
TTITLE9=You're So Fine
TTITLE10=Poor Little Fool
TTITLE11=So Blue Over You
TTITLE12=Make 'Em Wait
TTITLE13=Beauty Is Just Skin Deep
TTITLE14=I Can't Stop Loving You
TTITLE15=Tell The Truth
TTITLE16=Good Times
TTITLE17=You Are My Sunshine
TTITLE18=Something's Got A Hold On Me
EXTD=
EXTT0=
EXTT1=
EXTT2=
EXTT3=
EXTT4=
EXTT5=
EXTT6=
EXTT7=
EXTT8=
EXTT9=
EXTT10=
EXTT11=
EXTT12=
EXTT13=
EXTT14=
EXTT15=
EXTT16=
EXTT17=
EXTT18=
PLAYORDER=
